<?xml version="1.0" ?><!DOCTYPE svg  PUBLIC '-//W3C//DTD SVG 1.1//EN'  'http://www.w3.org/Graphics/SVG/1.1/DTD/svg11.dtd'><svg enable-background="new 0 0 128 128" id="Слой_1" version="1.1" viewBox="0 0 128 128" xml:space="preserve" xmlns="http://www.w3.org/2000/svg" xmlns:xlink="http://www.w3.org/1999/xlink"><circle cx="64" cy="64" fill="#CADBCD" r="62"/><path d="M78.693,19c-9.736,3.083-19.538,3.043-29.402,0c0.007,0.334,0.023,0.671,0.044,1.009l-3.595,1.506  l4.972,23.702h22.079l9.651-23.621l-3.801-1.59C78.665,19.668,78.683,19.333,78.693,19z" fill="#C17C4C"/><path d="M78.693,19c-0.01,0.333-0.029,0.668-0.052,1.005l3.801,1.59l0.094-0.229L78.693,19z" fill="#7C4D4C"/><path d="M49.292,19l-3.554,2.502l0.003,0.013l3.595-1.506C49.314,19.671,49.299,19.334,49.292,19z" fill="#7C4D4C"/><path d="M78.693,19c-9.736,3.083-19.538,3.043-29.402,0c0.007,0.334,0.023,0.671,0.044,1.009l-3.595,1.506  l4.972,23.702h22.079l9.651-23.621l-3.801-1.59C78.665,19.668,78.683,19.333,78.693,19z" opacity="0.2"/><path d="M78.693,19c-0.01,0.333-0.029,0.668-0.052,1.005l3.801,1.59l0.094-0.229L78.693,19z" opacity="0.2"/><path d="M49.292,19l-3.554,2.502l0.003,0.013l3.595-1.506C49.314,19.671,49.299,19.334,49.292,19z" opacity="0.2"/><path d="M100.9,31.818c-0.182-0.462-0.397-0.909-0.642-1.336c-0.491-0.854-1.106-1.631-1.827-2.301  c-0.361-0.335-0.748-0.643-1.16-0.921c-1.667-1.126-3.381-1.902-3.381-1.902l-13.611-5.694L78.693,19  c-0.01,0.333-0.029,0.668-0.052,1.005C77.946,29.872,71.664,41.332,64,41.332c-7.723,0-14.051-11.416-14.665-21.324  c-0.021-0.338-0.036-0.674-0.044-1.008l-1.534,0.642l-13.647,5.715c0,0-1.714,0.776-3.381,1.902  c-0.412,0.278-0.799,0.586-1.16,0.921c-0.721,0.67-1.336,1.447-1.827,2.301c-0.246,0.427-0.46,0.874-0.642,1.336  c-1.061,2.696-2.581,7.971-3.035,16.7c0.313,0.237,1.191,0.885,2.379,1.674c3.062,2.036,8.189,5,11.116,4.222  c0.117-0.031,0.571-1.745,0.68-1.607c3.011,3.813,1.414,44.439,1.031,53.4c-0.04,0.93,0.703,1.702,1.634,1.702  c15.397,1.454,30.794,1.454,46.191,0c0.931,0,1.674-0.772,1.634-1.702c-0.383-8.961-1.981-49.588,1.031-53.4  c0.109-0.138,0.563,1.576,0.68,1.607c2.927,0.778,8.054-2.186,11.116-4.222c1.188-0.79,2.065-1.438,2.379-1.674  C103.48,39.789,101.96,34.514,100.9,31.818z" fill="#403B38"/><path d="M27.065,48.518c0.454-8.729,1.975-14.004,3.035-16.7c0.182-0.462,0.397-0.909,0.642-1.336  c0.491-0.854,1.106-1.631,1.827-2.301c0.361-0.335,0.748-0.643,1.16-0.921c1.667-1.126,3.381-1.902,3.381-1.902l12.242-5.127  c-0.005-0.074-0.013-0.148-0.018-0.222c-0.021-0.338-0.036-0.674-0.044-1.008l-1.534,0.642l-13.647,5.715  c0,0-1.714,0.776-3.381,1.902c-0.412,0.278-0.799,0.586-1.16,0.921c-0.721,0.67-1.336,1.447-1.827,2.301  c-0.246,0.427-0.46,0.874-0.642,1.336c-1.061,2.696-2.581,7.971-3.035,16.7c0.313,0.237,1.191,0.885,2.379,1.674  c3.062,2.036,8.189,5,11.116,4.222c0.019-0.005,0.048-0.063,0.081-0.14c-2.747-0.692-6.001-2.622-8.197-4.082  C28.256,49.402,27.379,48.754,27.065,48.518z" fill="#F9F9F9" opacity="0.05"/><path d="M100.9,31.818c-0.182-0.462-0.397-0.909-0.642-1.336c-0.491-0.854-1.106-1.631-1.827-2.301  c-0.361-0.335-0.748-0.643-1.16-0.921c-1.667-1.126-3.381-1.902-3.381-1.902l-13.611-5.694L78.693,19  c-0.01,0.333-0.029,0.668-0.052,1.005c-0.005,0.073-0.014,0.147-0.019,0.221l12.268,5.132c0,0,1.714,0.776,3.381,1.902  c0.412,0.278,0.799,0.586,1.16,0.921c0.721,0.67,1.336,1.447,1.827,2.301c0.246,0.427,0.46,0.874,0.642,1.336  c1.061,2.696,2.581,7.971,3.035,16.7c-0.313,0.237-1.191,0.885-2.379,1.674c-2.196,1.46-5.45,3.39-8.197,4.082  c0.033,0.077,0.063,0.135,0.081,0.14c2.927,0.778,8.054-2.186,11.116-4.222c1.188-0.79,2.065-1.438,2.379-1.674  C103.48,39.789,101.96,34.514,100.9,31.818z" opacity="0.05"/><path d="M76.205,19.711c-0.557,9.404-6.262,20.376-13.438,21.516  c0.407,0.064,0.817,0.105,1.233,0.105c7.664,0,13.946-11.46,14.641-21.327c0.024-0.337,0.042-0.672,0.052-1.005  C77.864,19.262,77.035,19.494,76.205,19.711z" fill="#020202" opacity="0.05"/><path d="M89.76,52.807l0.037,0.008C89.783,52.801,89.77,52.795,89.76,52.807z" opacity="0.1"/><path d="M103.839,46.953c-0.375,0.279-1.221,0.893-2.354,1.642c-3.134,2.072-8.36,5.083-11.283,4.306l-0.404-0.085  c0.087,0.086,0.254,0.6,0.399,1.024l0.243,0.575c2.927,0.778,8.054-2.186,11.116-4.222c1.188-0.79,2.065-1.438,2.379-1.674  C103.907,47.982,103.874,47.463,103.839,46.953z" fill="#C17C4C"/><path d="M26.515,48.595c-1.132-0.748-1.978-1.362-2.354-1.641c-0.036,0.509-0.068,1.028-0.096,1.564  c0.313,0.237,1.191,0.885,2.379,1.674c2.679,1.782,6.939,4.273,9.923,4.347c0.426,0.01,0.826-0.028,1.191-0.125l0.25-0.589  c0.169-0.493,0.365-1.103,0.432-1.018L37.797,52.9C34.873,53.677,29.649,50.667,26.515,48.595z" fill="#C17C4C"/><path d="M78.693,19c-0.01,0.333-0.029,0.668-0.052,1.005C77.946,29.872,71.664,41.332,64,41.332  c-7.723,0-14.051-11.416-14.665-21.324c-0.021-0.338-0.036-0.674-0.044-1.008l-1.534,0.642l0.033,1.013l0.024,0.736  C48.944,31.369,55.724,42.968,64,42.968c8.274,0,15.053-11.596,16.184-21.57l0.04-0.731l0.055-1.003L78.693,19z" opacity="0.1"/><path d="M38.578,53.46c0.053,0.134,0.106,0.268,0.156,0.428c0.03,0.096,0.057,0.21,0.086,0.316  c0.043,0.159,0.086,0.317,0.126,0.496c0.029,0.128,0.056,0.27,0.083,0.408c0.036,0.184,0.073,0.368,0.107,0.569  c0.027,0.157,0.052,0.324,0.077,0.491c0.031,0.208,0.062,0.419,0.092,0.642c0.024,0.183,0.047,0.373,0.07,0.565  c0.027,0.231,0.053,0.467,0.079,0.711c0.021,0.206,0.042,0.416,0.062,0.631c0.023,0.253,0.046,0.514,0.068,0.779  c0.018,0.226,0.037,0.454,0.054,0.689c0.02,0.275,0.039,0.558,0.057,0.844c0.016,0.245,0.032,0.489,0.046,0.742  c0.017,0.289,0.032,0.588,0.047,0.887c0.014,0.269,0.028,0.535,0.04,0.812c0.013,0.297,0.025,0.603,0.036,0.907  c0.011,0.29,0.023,0.576,0.033,0.873c0.01,0.305,0.019,0.619,0.028,0.93c0.009,0.313,0.019,0.621,0.027,0.94  c0.006,0.247,0.01,0.502,0.016,0.753c0.017,0.78,0.03,1.575,0.041,2.385c0.003,0.231,0.007,0.457,0.009,0.69  c0.004,0.411,0.007,0.83,0.01,1.247c0.002,0.26,0.004,0.518,0.005,0.78c0.002,0.415,0.002,0.834,0.003,1.254  c0,0.211,0.002,0.419,0.002,0.631c1.682-8.658,1.965-16.687,1.203-19.967c-1.772-7.632-8.209-15.786-6.474-13.356  c1.755,2.457,2.417,9.026,2.66,12.902c0.044-0.01,0.091-0.013,0.134-0.024c0.117-0.031,0.571-1.745,0.68-1.607  c0.091,0.115,0.177,0.267,0.259,0.446C38.527,53.313,38.552,53.393,38.578,53.46z" opacity="0.05"/><path d="M93.273,41.536c1.735-2.429-4.702,5.724-6.474,13.356c-0.756,3.255-0.481,11.184,1.166,19.764  c0.005-10.62,0.415-20.102,1.795-21.85c0.007-0.009,0.02,0.009,0.03,0.015c0.003-0.004,0.006-0.011,0.009-0.015  c0.008-0.01,0.019,0.015,0.031,0.056c0.167,0.281,0.511,1.525,0.611,1.551c0.055,0.015,0.116,0.019,0.172,0.031  C90.855,50.57,91.517,43.995,93.273,41.536z" opacity="0.05"/></svg>