<?xml version="1.0" ?><!DOCTYPE svg  PUBLIC '-//W3C//DTD SVG 1.1//EN'  'http://www.w3.org/Graphics/SVG/1.1/DTD/svg11.dtd'><svg enable-background="new 0 0 128 128" id="Слой_1" version="1.1" viewBox="0 0 128 128" xml:space="preserve" xmlns="http://www.w3.org/2000/svg" xmlns:xlink="http://www.w3.org/1999/xlink"><circle cx="64" cy="64" fill="#CADBCD" r="62"/><path d="M51.483,19c9.77,3.014,15.984,3.309,25.627,0.255l5.248,2.947l-9.652,23.623H50.839l-4.927-23.488L51.483,19  z" fill="#403B38"/><path d="M51.483,19c9.77,3.014,15.984,3.309,25.627,0.255l5.248,2.947l-9.652,23.623H50.839l-4.927-23.488L51.483,19z  " opacity="0.2"/><path d="M100.547,32.555c-0.721-1.832-1.963-3.413-3.594-4.515c-1.651-1.115-3.349-1.884-3.349-1.884L77.11,19.255  c-1.187,5.03-6.461,8.822-12.79,8.822c-6.435,0-11.769-3.922-12.837-9.077l-17.087,7.156c0,0-1.698,0.769-3.349,1.884  c-1.632,1.102-2.873,2.683-3.594,4.515c-1.269,3.226-3.208,10.165-3.139,22.382c0,0,9.179,4.117,13.499,2.97  c0.115-0.031,0.566-4.7,0.674-4.563c2.983,3.776,1.4,44.015,1.021,52.891c-0.039,0.921,0.697,1.686,1.619,1.686  c15.25,1.44,30.5,1.44,45.75,0c0.922,0,1.658-0.765,1.618-1.686c-0.379-8.876-1.962-49.115,1.021-52.891  c0.108-0.137,0.558,4.532,0.674,4.563c4.32,1.147,13.499-2.97,13.499-2.97C103.755,42.72,101.817,35.781,100.547,32.555z" fill="#403B38"/><path d="M90.188,57.907c4.32,1.147,13.499-2.97,13.499-2.97v-1.62c0,0-9.415,4.237-13.735,3.09  L90.188,57.907z" fill="#000100" opacity="0.1"/><path d="M37.81,57.907c-4.32,1.147-13.499-2.97-13.499-2.97v-1.62c0,0,9.415,4.237,13.735,3.09  L37.81,57.907z" fill="#000100" opacity="0.1"/><path d="M29.882,32.555c0.721-1.832,1.963-3.413,3.594-4.515c1.651-1.115,3.349-1.884,3.349-1.884  l14.898-6.239c-0.095-0.301-0.176-0.606-0.24-0.917l-17.087,7.156c0,0-1.698,0.769-3.349,1.884  c-1.632,1.102-2.873,2.683-3.594,4.515c-1.269,3.226-3.208,10.165-3.139,22.382c0,0,8.313,3.727,12.839,3.096  c-4.558-0.474-10.41-3.096-10.41-3.096C26.675,42.72,28.613,35.781,29.882,32.555z" fill="#FFFFFF" opacity="0.05"/><path d="M65.834,27.995c0.247-0.024,0.494-0.048,0.737-0.083c0.147-0.022,0.29-0.052,0.435-0.077  c0.216-0.038,0.433-0.075,0.645-0.122c0.152-0.034,0.301-0.075,0.451-0.113c0.199-0.051,0.399-0.101,0.594-0.159  c0.153-0.046,0.302-0.098,0.452-0.148c0.186-0.062,0.371-0.125,0.552-0.194c0.151-0.057,0.298-0.12,0.445-0.182  c0.173-0.073,0.346-0.147,0.515-0.226c0.146-0.069,0.289-0.141,0.432-0.214c0.162-0.083,0.323-0.168,0.481-0.257  c0.14-0.079,0.278-0.161,0.414-0.244c0.152-0.093,0.301-0.188,0.448-0.287c0.133-0.089,0.264-0.18,0.392-0.273  c0.141-0.102,0.278-0.207,0.413-0.314c0.125-0.099,0.248-0.198,0.368-0.301c0.129-0.11,0.253-0.224,0.377-0.339  c0.116-0.108,0.231-0.215,0.342-0.327c0.117-0.118,0.228-0.24,0.34-0.362c0.106-0.116,0.212-0.232,0.313-0.351  c0.105-0.125,0.203-0.255,0.302-0.384c0.095-0.124,0.191-0.246,0.28-0.373c0.093-0.133,0.177-0.27,0.264-0.407  c0.082-0.13,0.168-0.258,0.244-0.391c0.081-0.141,0.151-0.287,0.225-0.432c0.069-0.134,0.142-0.266,0.205-0.404  c0.071-0.157,0.13-0.318,0.193-0.478c0.051-0.13,0.11-0.258,0.155-0.391c0.102-0.297,0.191-0.599,0.264-0.906  c-0.915,0.29-1.792,0.54-2.651,0.77c-1.416,4.325-5.896,7.581-11.357,8.004c0.401,0.031,0.807,0.048,1.217,0.048  c0.384,0,0.764-0.015,1.139-0.043C65.586,28.025,65.709,28.007,65.834,27.995z" fill="#020202" opacity="0.1"/><path d="M64.32,29.697c6.029,0,11.376-3.189,13.585-7.845c0.134-0.282,0.235-0.578,0.321-0.878  l0.318-1.118l-1.433-0.6c-1.187,5.03-6.461,8.822-12.79,8.822c-6.435,0-11.769-3.922-12.837-9.077l-1.447,0.606l0.321,1.219  c0.064,0.241,0.14,0.48,0.239,0.709C52.7,26.374,58.111,29.697,64.32,29.697z" fill="#000100" opacity="0.1"/><path d="M103.687,54.937c0.068-12.217-1.87-19.156-3.139-22.382  c-0.721-1.832-1.963-3.413-3.594-4.515c-1.651-1.115-3.349-1.884-3.349-1.884L77.11,19.255c-0.072,0.307-0.161,0.609-0.263,0.906  l14.327,5.994c0,0,1.698,0.769,3.349,1.884c1.632,1.102,2.873,2.683,3.594,4.515c1.269,3.226,3.208,10.165,3.139,22.382  c0,0-5.852,2.623-10.41,3.096C95.374,58.663,103.687,54.937,103.687,54.937z" fill="#020202" opacity="0.05"/><path d="M41.457,55.409c-1.755-7.559-8.131-15.635-6.412-13.229c2.531,3.543,2.767,15.726,2.767,15.726  c0.115-0.031,0.566-4.7,0.674-4.563c1.376,1.742,1.78,11.242,1.779,21.842C41.931,66.61,42.211,58.658,41.457,55.409z" opacity="0.05"/><path d="M86.581,55.409c1.755-7.559,8.131-15.635,6.412-13.229c-2.531,3.543-2.767,15.726-2.767,15.726  c-0.115-0.031-0.566-4.7-0.674-4.563c-1.376,1.742-1.78,11.242-1.779,21.842C86.107,66.61,85.827,58.658,86.581,55.409z" opacity="0.05"/></svg>