<?xml version="1.0" ?><!DOCTYPE svg  PUBLIC '-//W3C//DTD SVG 1.1//EN'  'http://www.w3.org/Graphics/SVG/1.1/DTD/svg11.dtd'><svg enable-background="new 0 0 128 128" id="Слой_1" version="1.1" viewBox="0 0 128 128" xml:space="preserve" xmlns="http://www.w3.org/2000/svg" xmlns:xlink="http://www.w3.org/1999/xlink"><path d="M64,2C45.887,2,29.587,9.768,18.252,22.154C8.158,33.182,76.334,125.067,82.044,123.333  C107.485,115.607,126,91.966,126,64C126,29.758,98.242,2,64,2z" fill="#CADBCD"/><path d="M51.61,71.423l19.333-47.32l-7.614-3.185c0.048-0.675,0.084-1.347,0.105-2.013  c-14.984,4.745-30.044,5.783-45.18,3.252C10.808,30.294,5.503,40.422,3.233,51.653l4.147,19.77H51.61z" fill="#F6CA41"/><path d="M63.33,20.918l7.614,3.185l0.188-0.46l-7.697-4.739C63.414,19.571,63.377,20.243,63.33,20.918z" fill="#7C4D4C"/><path d="M51.61,71.423l19.333-47.32l-7.614-3.185c0.048-0.675,0.084-1.347,0.105-2.013  c-14.984,4.745-30.044,5.783-45.18,3.252C10.808,30.294,5.503,40.422,3.233,51.653l4.147,19.77H51.61z" opacity="0.2"/><path d="M63.33,20.918l7.614,3.185l0.188-0.46l-7.697-4.739C63.414,19.571,63.377,20.243,63.33,20.918z" opacity="0.2"/><path d="M64,126c6.276,0,12.331-0.941,18.041-2.675c0.184-18.279,1.11-33.589,3.563-36.695  c0.218-0.276,1.129,3.157,1.362,3.219c5.863,1.558,16.134-4.379,22.268-8.458c2.379-1.582,4.137-2.88,4.765-3.354  c-0.91-17.486-3.956-28.053-6.08-33.454c-0.364-0.926-0.795-1.821-1.287-2.677c-0.984-1.711-2.215-3.267-3.66-4.61  c-0.722-0.671-1.498-1.289-2.323-1.846c-3.339-2.255-6.774-3.81-6.774-3.81L66.61,20.235l-3.175-1.33  c-0.021,0.667-0.057,1.338-0.105,2.013C61.939,40.685,49.353,63.642,34,63.642c-11.247,0-21.012-12.088-25.981-26.312  C4.163,45.409,2,54.451,2,64C2,98.242,29.758,126,64,126z" fill="#A45F3F"/><path d="M52.5,106.764L34,78.433l-16.979,26.001c4.148,4.815,9.016,8.99,14.449,12.346h14.489L52.5,106.764z" fill="#FFFFFF"/><path d="M34,88.45l-13.114,20.083c3.214,3.113,6.759,5.884,10.585,8.247H52.5L34,88.45z" fill="#46B19B"/><path d="M40.541,88.45l-15.514,23.758c2.045,1.656,4.196,3.185,6.444,4.573h27.57L40.541,88.45z" fill="#46B19B"/><path d="M27.459,88.45l-10.438,15.985c4.148,4.815,9.017,8.99,14.449,12.346h14.489L27.459,88.45z" fill="#46B19B"/><path d="M107.92,44.583c-0.364-0.926-0.795-1.821-1.287-2.677c-0.984-1.711-2.215-3.267-3.66-4.61  c-0.722-0.671-1.498-1.289-2.323-1.846c-3.339-2.255-6.774-3.81-6.774-3.81L66.61,20.235l-3.175-1.33  c-0.021,0.667-0.057,1.338-0.105,2.013c-0.01,0.147-0.027,0.295-0.039,0.442l24.576,10.28c0,0,3.435,1.555,6.774,3.81  c0.825,0.557,1.601,1.175,2.323,1.846c1.445,1.342,2.675,2.898,3.66,4.61c0.492,0.856,0.922,1.75,1.287,2.677  c2.125,5.401,5.17,15.968,6.08,33.454c-0.628,0.474-2.386,1.772-4.765,3.354c-4.399,2.925-10.919,6.791-16.421,8.178  c0.067,0.154,0.125,0.27,0.163,0.28c5.863,1.558,16.134-4.379,22.268-8.458c2.379-1.582,4.137-2.88,4.765-3.354  C113.09,60.551,110.044,49.984,107.92,44.583z" opacity="0.05"/><path d="M31.531,63.433c0.815,0.128,1.637,0.21,2.469,0.21c15.353,0,27.938-22.958,29.329-42.724  c0.048-0.675,0.084-1.347,0.105-2.013c-1.66,0.526-3.322,0.989-4.985,1.425C57.334,39.168,45.906,61.148,31.531,63.433z" fill="#020202" opacity="0.05"/><path d="M63.33,20.918l0.686-1.655l-0.581-0.358C63.414,19.571,63.377,20.243,63.33,20.918z" fill="#020202" opacity="0.05"/><path d="M85.604,86.63l0.075,0.016C85.65,86.617,85.624,86.605,85.604,86.63z" opacity="0.1"/><path d="M113.808,74.902c-0.751,0.559-2.446,1.788-4.715,3.288c-6.278,4.151-16.746,10.182-22.604,8.626l-0.81-0.171  c0.175,0.173,0.509,1.202,0.8,2.052l0.487,1.152c5.863,1.558,16.134-4.379,22.268-8.458c2.379-1.582,4.137-2.88,4.765-3.354  C113.944,76.964,113.879,75.923,113.808,74.902z" opacity="0.1"/><path d="M34,66.919c16.575,0,30.155-23.229,32.421-43.21l0.08-1.464l-3.171-1.326  C61.939,40.685,49.353,63.642,34,63.642c-11.247,0-21.012-12.088-25.981-26.312c-0.635,1.331-1.212,2.693-1.753,4.075  C12.047,55.286,22.271,66.919,34,66.919z" opacity="0.1"/><path d="M63.33,20.918l3.171,1.326l0.109-2.01l-3.175-1.33C63.414,19.572,63.377,20.243,63.33,20.918z" opacity="0.1"/><path d="M85.664,86.66c0.006-0.008,0.012-0.022,0.018-0.03c0.017-0.021,0.038,0.029,0.062,0.112  c0.334,0.562,1.024,3.055,1.223,3.108c0.11,0.029,0.232,0.038,0.345,0.062c0.486-7.762,1.812-20.935,5.329-25.86  c3.476-4.866-9.419,11.467-12.969,26.756c-1.313,5.657-1.07,18.366,1.171,32.857c0.4-0.113,0.803-0.22,1.2-0.341  c0.183-18.276,1.107-33.588,3.56-36.694C85.619,86.611,85.643,86.647,85.664,86.66z" opacity="0.05"/></svg>