<?xml version="1.0" ?><!DOCTYPE svg  PUBLIC '-//W3C//DTD SVG 1.1//EN'  'http://www.w3.org/Graphics/SVG/1.1/DTD/svg11.dtd'><svg enable-background="new 0 0 128 128" id="Слой_1" version="1.1" viewBox="0 0 128 128" xml:space="preserve" xmlns="http://www.w3.org/2000/svg" xmlns:xlink="http://www.w3.org/1999/xlink"><circle cx="64" cy="64" fill="#CADBCD" r="62"/><path d="M78.131,24.306l6.231-3.519l-4.248-1.779c-10.748,4.538-21.49,4.543-32.227,0l-4.248,1.779l6.231,3.519  c1.671,0.944,2.638,2.788,2.441,4.697c-0.25,2.424-0.962,4.776-2.093,6.931c-0.132,0.251-0.29,0.488-0.463,0.713l-4.574,5.923  h18.819h0H82.82l-4.574-5.923c-0.173-0.225-0.331-0.462-0.463-0.713c-1.131-2.154-1.842-4.506-2.093-6.931  C75.493,27.093,76.46,25.25,78.131,24.306z" fill="#A45F3F"/><path d="M78.131,24.306l6.231-3.519l-4.248-1.779c-10.748,4.538-21.49,4.543-32.227,0l-4.248,1.779  l6.231,3.519c1.671,0.944,2.638,2.788,2.441,4.697c-0.25,2.424-0.962,4.776-2.093,6.931c-0.132,0.251-0.29,0.488-0.463,0.713  l-4.574,5.923h18.819h0H82.82l-4.574-5.923c-0.173-0.225-0.331-0.462-0.463-0.713c-1.131-2.154-1.842-4.506-2.093-6.931  C75.493,27.093,76.46,25.25,78.131,24.306z" fill="#020202" opacity="0.2"/><path d="M42.885,39.004c-1.44,5.896-4.023,12.587-3.588,18.668c0,0.004,0.001,0.009,0.001,0.013  c0,0.001,0,0.001,0,0.002c0.055,0.517,2.211,13.364,1.462,24.233l-1.638,24.271c-0.04,0.936,0.708,1.712,1.644,1.712  c15.49,1.463,30.98,1.463,46.47,0c0.931,0,1.673-0.768,1.643-1.696l-0.005-0.016L87.236,81.92  c-0.75-10.872,1.409-23.725,1.462-24.234c0-0.005,0.001-0.01,0.001-0.014c0.435-6.081-2.149-12.772-3.588-18.668  c-1.191-4.877-0.893-14.896-0.754-18.215l-3.979-1.665l-0.287-0.12l-0.437,6.973c-0.519,8.27-7.378,14.712-15.664,14.712h0  c-8.287,0-15.145-6.442-15.664-14.712l-0.437-6.97l-0.227,0.095l-4.021,1.684C43.778,24.103,44.077,34.125,42.885,39.004z" fill="#A45F3F"/><path d="M41.59,106.191l1.638-24.271c0.75-10.869-1.407-23.717-1.462-24.233c0-0.001,0-0.001,0-0.002  c0-0.004-0.001-0.009-0.001-0.013c-0.435-6.081,2.149-12.772,3.588-18.668c1.191-4.878,0.892-14.9,0.754-18.217l1.843-0.772  l-0.063-1.007l-0.227,0.095l-4.021,1.684c0.139,3.317,0.437,13.339-0.754,18.217c-1.44,5.896-4.023,12.587-3.588,18.668  c0,0.004,0.001,0.009,0.001,0.013c0,0.001,0,0.001,0,0.002c0.055,0.517,2.211,13.364,1.462,24.233l-1.638,24.271  c-0.04,0.936,0.708,1.712,1.644,1.712c8.156,0.77,16.312,1.123,24.469,1.082c-7.334-0.037-14.667-0.39-22.001-1.082  C42.298,107.903,41.55,107.126,41.59,106.191z" fill="#FFFFFF" opacity="0.1"/><path d="M88.874,106.191L87.236,81.92c-0.75-10.872,1.409-23.725,1.462-24.234  c0-0.005,0.001-0.01,0.001-0.014c0.435-6.081-2.149-12.772-3.588-18.668c-1.191-4.877-0.893-14.896-0.754-18.215l-3.979-1.665  l-0.287-0.12l-0.063,1.006l1.861,0.779c-0.139,3.318-0.437,13.338,0.754,18.215c1.44,5.896,4.023,12.587,3.588,18.668  c0,0.005-0.001,0.01-0.001,0.014c-0.053,0.509-2.212,13.362-1.462,24.234l1.638,24.271l0.005,0.016  c0.03,0.928-0.712,1.696-1.643,1.696c-7.334,0.692-14.667,1.046-22.001,1.082c8.156,0.041,16.313-0.312,24.469-1.082  c0.931,0,1.673-0.768,1.643-1.696L88.874,106.191z" fill="#020202" opacity="0.05"/><path d="M76.885,33.919c-0.367-0.951-0.663-1.928-0.874-2.926c-2.216,5.345-7.278,9.169-13.256,9.637  c0.408,0.032,0.818,0.06,1.234,0.06h0C69.316,40.69,74.043,38.019,76.885,33.919z" fill="#020202" opacity="0.1"/><path d="M77.249,24.961c0.268-0.245,0.557-0.471,0.882-0.655l1.687-0.952l0.21-3.346l0.087-1  c-0.851,0.359-1.703,0.68-2.554,0.983L77.249,24.961z" fill="#020202" opacity="0.1"/><path d="M46.683,26.08c0.571,9.115,8.173,16.255,17.306,16.255s16.735-7.14,17.307-16.255l0.402-6.407  l-1.362-0.57L80.091,19l-0.438,6.977c-0.519,8.27-7.378,14.712-15.664,14.712h0c-8.287,0-15.145-6.442-15.664-14.712l-0.437-6.97  l-0.227,0.095l-1.38,0.578L46.683,26.08z" fill="#020202" opacity="0.1"/></svg>