<?xml version="1.0" ?><!DOCTYPE svg  PUBLIC '-//W3C//DTD SVG 1.1//EN'  'http://www.w3.org/Graphics/SVG/1.1/DTD/svg11.dtd'><svg enable-background="new 0 0 128 128" id="Слой_1" version="1.1" viewBox="0 0 128 128" xml:space="preserve" xmlns="http://www.w3.org/2000/svg" xmlns:xlink="http://www.w3.org/1999/xlink"><circle cx="64" cy="64" fill="#CADBCD" r="62"/><path d="M49.291,19c9.864,3.043,19.681,3.09,29.417,0.006l4.228,1.769L72.791,45.216H50.712l-5.207-24.63L49.291,19z  " fill="#C55C44"/><path d="M49.291,19c9.864,3.043,19.681,3.09,29.417,0.006l4.228,1.769L72.791,45.216H50.712l-5.207-24.63L49.291,19z" opacity="0.2"/><path d="M100.9,31.818c-0.728-1.85-1.982-3.446-3.629-4.559c-1.667-1.126-3.381-1.902-3.381-1.902l-15.181-6.351  C78.48,29.127,64,39.697,64,39.697S49.518,29.124,49.291,19l-1.534,0.642l0,0l-13.647,5.715c0,0-1.714,0.776-3.381,1.902  c-1.647,1.112-2.901,2.709-3.629,4.559c-1.281,3.257-3.239,10.263-3.17,22.598c0,0,9.268,4.157,13.629,2.998  c0.117-0.031,0.571-4.745,0.68-4.607c3.011,3.813,1.413,44.439,1.031,53.4c-0.04,0.93,0.703,1.702,1.634,1.702  c15.397,1.454,30.794,1.454,46.191,0c0.931,0,1.674-0.772,1.634-1.702c-0.383-8.961-1.981-49.588,1.031-53.4  c0.109-0.138,0.563,4.576,0.68,4.607c4.361,1.158,13.629-2.998,13.629-2.998C104.138,42.081,102.181,35.075,100.9,31.818z" fill="#C55C44"/><path d="M85.467,42.78c-4.2,0.799-8.4,0.799-12.6,0c-0.387,0-0.7,0.313-0.7,0.7v2.1v9.326  c0,0.286,0.174,0.544,0.44,0.65l6.3,2.52c0.167,0.067,0.353,0.067,0.52,0l6.3-2.52c0.266-0.106,0.44-0.364,0.44-0.65V45.58v-2.1  C86.167,43.094,85.853,42.78,85.467,42.78z" fill="#DBAE49"/><path d="M85.467,42.78c-4.2,0.799-8.4,0.799-12.6,0c-0.387,0-0.7,0.313-0.7,0.7v2.1c4.667,0.814,9.333,0.814,14,0  v-2.1C86.167,43.094,85.853,42.78,85.467,42.78z" opacity="0.1"/><path d="M85.467,42.78h-12.6C77.067,43.579,81.267,43.579,85.467,42.78z" opacity="0.1"/><path d="M29.554,31.818c0.728-1.85,1.982-3.446,3.629-4.559c1.667-1.126,3.381-1.902,3.381-1.902l12.797-5.359  c-0.037-0.333-0.062-0.666-0.069-0.998l-1.534,0.642l-13.647,5.715c0,0-1.714,0.776-3.381,1.902  c-1.647,1.112-2.901,2.709-3.629,4.559c-1.281,3.257-3.239,10.263-3.17,22.598c0,0,8.393,3.762,12.963,3.126  c-4.602-0.478-10.51-3.126-10.51-3.126C26.315,42.081,28.272,35.075,29.554,31.818z" opacity="0.05"/><polygon fill="#7C4D4C" points="79.134,19.185 78.708,19.006 79.134,19.185 "/><path d="M63.913,39.632c0.002,0.001,0.004,0.003,0.005,0.004C63.97,39.675,64,39.697,64,39.697  s0.056-0.041,0.157-0.117c0.02-0.015,0.049-0.037,0.072-0.055c0.036-0.027,0.071-0.054,0.115-0.088  c0.035-0.027,0.079-0.061,0.118-0.091c0.044-0.034,0.087-0.067,0.137-0.106c0.05-0.039,0.109-0.085,0.164-0.129  c0.049-0.038,0.096-0.075,0.149-0.117c0.068-0.054,0.143-0.114,0.217-0.173c0.051-0.041,0.101-0.08,0.155-0.124  c0.075-0.061,0.158-0.128,0.239-0.194c0.062-0.051,0.123-0.1,0.189-0.154c0.087-0.072,0.18-0.149,0.272-0.226  c0.065-0.054,0.129-0.107,0.196-0.164c0.097-0.081,0.199-0.168,0.3-0.255c0.072-0.061,0.142-0.121,0.216-0.185  c0.104-0.09,0.212-0.184,0.321-0.278c0.075-0.066,0.15-0.131,0.227-0.199c0.113-0.099,0.229-0.203,0.345-0.307  c0.078-0.07,0.157-0.14,0.236-0.212c0.12-0.108,0.242-0.22,0.365-0.333c0.081-0.074,0.161-0.148,0.243-0.224  c0.126-0.117,0.253-0.236,0.381-0.357c0.083-0.078,0.165-0.156,0.249-0.236c0.131-0.125,0.263-0.253,0.395-0.382  c0.085-0.082,0.169-0.165,0.255-0.249c0.133-0.131,0.266-0.264,0.4-0.399c0.087-0.087,0.174-0.176,0.261-0.265  c0.135-0.138,0.271-0.278,0.407-0.42c0.086-0.089,0.171-0.179,0.257-0.27c0.138-0.146,0.276-0.293,0.414-0.443  c0.086-0.093,0.171-0.186,0.257-0.28c0.138-0.152,0.276-0.305,0.414-0.461c0.084-0.094,0.167-0.19,0.25-0.285  c0.139-0.159,0.277-0.319,0.414-0.482c0.082-0.096,0.163-0.194,0.244-0.291c0.138-0.165,0.275-0.332,0.411-0.5  c0.079-0.098,0.157-0.197,0.235-0.296c0.135-0.171,0.27-0.343,0.403-0.517c0.076-0.099,0.15-0.2,0.225-0.3  c0.132-0.177,0.263-0.354,0.392-0.533c0.072-0.1,0.142-0.202,0.213-0.303c0.128-0.182,0.255-0.365,0.379-0.549  c0.067-0.099,0.13-0.199,0.196-0.299c0.124-0.189,0.247-0.379,0.366-0.57c0.06-0.096,0.117-0.194,0.175-0.291  c0.119-0.197,0.237-0.394,0.35-0.592c0.053-0.093,0.102-0.187,0.153-0.28c0.113-0.205,0.226-0.41,0.332-0.616  c0.045-0.087,0.085-0.175,0.128-0.262c0.106-0.214,0.213-0.428,0.311-0.644c0.035-0.077,0.066-0.155,0.1-0.232  c0.1-0.228,0.2-0.456,0.29-0.686c0.019-0.048,0.034-0.096,0.052-0.143c0.448-1.166,0.763-2.347,0.895-3.528l0,0  c0.037-0.333,0.062-0.665,0.069-0.997c-0.831,0.263-1.663,0.495-2.495,0.713c-0.703,8.088-10.045,16.293-13.44,19.025  c0.001,0,0.001,0.001,0.002,0.001C63.342,39.201,63.745,39.507,63.913,39.632z" fill="#020202" opacity="0.05"/><path d="M104.069,54.416c0.069-12.335-1.888-19.341-3.17-22.598c-0.728-1.85-1.982-3.446-3.629-4.559  c-1.667-1.126-3.381-1.902-3.381-1.902l-15.181-6.351c-0.008,0.338-0.023,0.674-0.045,1.008l12.773,5.344  c0,0,1.714,0.776,3.381,1.902c1.647,1.112,2.901,2.709,3.629,4.559c1.281,3.257,3.239,10.263,3.17,22.598  c0,0-5.908,2.648-10.51,3.126C95.676,58.178,104.069,54.416,104.069,54.416z" fill="#020202" opacity="0.05"/><path d="M64,42.15c0,0,15.053-10.778,16.184-20.752l0.107-1.729l-1.582-0.663C78.48,29.127,64,39.697,64,39.697  S49.518,29.124,49.291,19l-1.534,0.642l0.058,1.749C48.944,31.369,64,42.15,64,42.15z" opacity="0.1"/><path d="M90.44,57.414c4.361,1.158,13.629-2.998,13.629-2.998V52.78c0,0-9.506,4.278-13.867,3.12L90.44,57.414z" opacity="0.1"/><path d="M37.558,57.414c-4.361,1.158-13.629-2.998-13.629-2.998V52.78c0,0,9.506,4.278,13.867,3.12L37.558,57.414z" opacity="0.1"/><path d="M41.24,54.893c-1.772-7.632-8.209-15.786-6.474-13.356c2.555,3.578,2.794,15.878,2.794,15.878  c0.117-0.031,0.571-4.745,0.68-4.607c1.389,1.759,1.797,11.35,1.796,22.053C41.718,66.201,42.001,58.173,41.24,54.893z" opacity="0.05"/><path d="M86.799,54.893c1.772-7.632,8.209-15.786,6.474-13.356c-2.555,3.578-2.794,15.878-2.794,15.878  c-0.117-0.031-0.571-4.745-0.68-4.607c-1.389,1.759-1.797,11.35-1.796,22.053C86.32,66.201,86.037,58.173,86.799,54.893z" opacity="0.05"/></svg>