<?xml version="1.0" ?><!DOCTYPE svg  PUBLIC '-//W3C//DTD SVG 1.1//EN'  'http://www.w3.org/Graphics/SVG/1.1/DTD/svg11.dtd'><svg enable-background="new 0 0 106 106" id="Layer_1" version="1.1" viewBox="0 0 106 106" xml:space="preserve" xmlns="http://www.w3.org/2000/svg" xmlns:xlink="http://www.w3.org/1999/xlink"><circle cx="53" cy="53" fill="#22B573" r="50"/><g><g><rect fill="none" height="48.6" stroke="#FFFFFF" stroke-miterlimit="10" stroke-width="3" width="54" x="26" y="28.7"/><line fill="none" stroke="#FFFFFF" stroke-miterlimit="10" stroke-width="3" x1="57.5" x2="57.5" y1="30" y2="76"/><line fill="none" stroke="#FFFFFF" stroke-miterlimit="10" stroke-width="3" x1="27" x2="58" y1="60.5" y2="60.5"/><line fill="none" stroke="#FFFFFF" stroke-miterlimit="10" stroke-width="3" x1="41.5" x2="41.5" y1="30" y2="61"/></g><line fill="none" stroke="#FFFFFF" stroke-miterlimit="10" stroke-width="3" x1="58" x2="79" y1="48.5" y2="48.5"/></g><g><g><defs><rect height="106" id="SVGID_1_" width="106" y="494"/></defs><clipPath id="SVGID_2_"><use overflow="visible" xlink:href="#SVGID_1_"/></clipPath><g clip-path="url(#SVGID_2_)"><defs><rect height="106" id="SVGID_3_" width="106" y="494"/></defs><clipPath id="SVGID_4_"><use overflow="visible" xlink:href="#SVGID_3_"/></clipPath><path clip-path="url(#SVGID_4_)" d="M103,547c0,27.6-22.4,50-50,50S3,574.6,3,547s22.4-50,50-50     S103,519.4,103,547" fill="#2F3440"/><path clip-path="url(#SVGID_4_)" d="M87.3,566.5c0,2.2-1.8,4-4,4H22.7c-2.2,0-4-1.8-4-4v-39c0-2.2,1.8-4,4-4h60.7     c2.2,0,4,1.8,4,4V566.5z" fill="#F7931E"/><path clip-path="url(#SVGID_4_)" d="M58.3,524.7c0,2.6-2.8,4.7-6.2,4.7c-3.4,0-6.2-2.1-6.2-4.7     c0-2.6,2.8-4.7,6.2-4.7C55.6,520,58.3,522.1,58.3,524.7" fill="#F7931E"/><path clip-path="url(#SVGID_4_)" d="M73.9,563.8c0,2.2-1.8,4-4,4H26.1c-2.2,0-4-1.8-4-4v-33.5c0-2.2,1.8-4,4-4     h43.8c2.2,0,4,1.8,4,4V563.8z" fill="#F2F2F2"/><polygon clip-path="url(#SVGID_4_)" fill="#F7931E" points="31.9,578.8 29.8,578.8 33,570.5 38.3,570.5    "/><polygon clip-path="url(#SVGID_4_)" fill="#F7931E" points="73.8,578.8 75.9,578.8 72.6,570.5 67.4,570.5    "/><line clip-path="url(#SVGID_4_)" fill="#F7931E" x1="38.3" x2="31.9" y1="570.5" y2="578.8"/><polygon clip-path="url(#SVGID_4_)" fill="#F7931E" points="54.2,523.7 53.5,524.4 41,511.6 41.4,511.2    "/><path clip-path="url(#SVGID_4_)" d="M41.7,510.4c0.4,0.4,0.4,1.1,0,1.5c-0.4,0.4-1.1,0.4-1.5,0     c-0.4-0.4-0.4-1.1,0-1.5C40.6,510,41.3,510,41.7,510.4" fill="#F7931E"/><polygon clip-path="url(#SVGID_4_)" fill="#F7931E" points="54.2,521.1 53.5,520.4 66.2,507.9 66.7,508.3    "/><path clip-path="url(#SVGID_4_)" d="M67.4,508.6c-0.4,0.4-1.1,0.4-1.5,0c-0.4-0.4-0.4-1.1,0-1.5     c0.4-0.4,1.1-0.4,1.5,0C67.8,507.6,67.8,508.2,67.4,508.6" fill="#F7931E"/><polygon clip-path="url(#SVGID_4_)" fill="#4D4D4D" points="42,555.9 42,538.6 57,547.2    "/><path clip-path="url(#SVGID_4_)" d="M82.5,532.4c0,1.2-1,2.1-2.1,2.1c-1.2,0-2.1-1-2.1-2.1s1-2.1,2.1-2.1     C81.5,530.3,82.5,531.2,82.5,532.4" fill="#F2F2F2"/><path clip-path="url(#SVGID_4_)" d="M82.5,552.4c0,1.2-1,2.1-2.1,2.1c-1.2,0-2.1-1-2.1-2.1s1-2.1,2.1-2.1     C81.5,550.3,82.5,551.2,82.5,552.4" fill="#F2F2F2"/><path clip-path="url(#SVGID_4_)" d="M82.5,542.4c0,1.2-1,2.1-2.1,2.1c-1.2,0-2.1-1-2.1-2.1s1-2.1,2.1-2.1     C81.5,540.3,82.5,541.2,82.5,542.4" fill="#F2F2F2"/></g></g></g></svg>