<?xml version="1.0" ?><!DOCTYPE svg  PUBLIC '-//W3C//DTD SVG 1.1//EN'  'http://www.w3.org/Graphics/SVG/1.1/DTD/svg11.dtd'><svg enable-background="new 0 0 106 106" id="Layer_1" version="1.1" viewBox="0 0 106 106" xml:space="preserve" xmlns="http://www.w3.org/2000/svg" xmlns:xlink="http://www.w3.org/1999/xlink"><circle cx="53" cy="53" fill="#F2A74B" r="50"/><path d="M78,73.1H28c-1.7,0-3-1.4-3-3V35.8c0-1.7,1.4-3,3-3H78c1.7,0,3,1.4,3,3v34.3C81,71.7,79.6,73.1,78,73.1z" fill="#FFFFFF"/><path d="M78,32H28c-1.7,0-3,2.1-3,3.8V38h56v-2.2C81,34.1,79.6,32,78,32z" fill="#BF1F49"/><g><path d="M51.6,62.7H40.5v-2.9h3.5v-8.8h-3.5v-2.7c0.5,0,1,0,1.5-0.1s0.9-0.2,1.2-0.3c0.4-0.2,0.6-0.4,0.8-0.7   c0.2-0.3,0.3-0.7,0.3-1.1h3.7v13.8h3.4V62.7z" fill="#333333"/><path d="M66.6,57c0,0.9-0.1,1.7-0.4,2.4c-0.3,0.7-0.7,1.4-1.3,1.9c-0.6,0.5-1.3,0.9-2.1,1.2s-1.8,0.4-3,0.4   c-1.2,0-2.3-0.1-3.2-0.3s-1.6-0.4-2.2-0.7v-3.7h0.4c0.2,0.1,0.4,0.3,0.7,0.4c0.3,0.1,0.6,0.3,1,0.5c0.4,0.2,0.8,0.3,1.2,0.4   c0.4,0.1,0.9,0.2,1.4,0.2c0.4,0,0.9-0.1,1.4-0.2c0.5-0.1,0.9-0.3,1.2-0.6c0.2-0.2,0.4-0.5,0.5-0.8c0.1-0.3,0.2-0.6,0.2-1.1   c0-0.4-0.1-0.7-0.2-1c-0.2-0.3-0.4-0.5-0.6-0.7c-0.4-0.3-0.8-0.4-1.4-0.5c-0.5-0.1-1-0.1-1.4-0.1c-0.6,0-1.2,0-1.8,0.1   c-0.6,0.1-1.1,0.2-1.5,0.3h-0.4V46h11.1v3.2H59v2.8c0.2,0,0.5,0,0.8,0c0.3,0,0.6,0,0.7,0c0.8,0,1.5,0.1,2.2,0.2   c0.7,0.2,1.3,0.4,1.8,0.7c0.6,0.4,1.1,1,1.5,1.7S66.6,56,66.6,57z" fill="#333333"/></g></svg>