<?xml version="1.0" ?><!DOCTYPE svg  PUBLIC '-//W3C//DTD SVG 1.1//EN'  'http://www.w3.org/Graphics/SVG/1.1/DTD/svg11.dtd'><svg enable-background="new 0 0 106 106" id="Layer_1" version="1.1" viewBox="0 0 106 106" xml:space="preserve" xmlns="http://www.w3.org/2000/svg" xmlns:xlink="http://www.w3.org/1999/xlink"><circle cx="53" cy="53" fill="#5DA6A6" r="50"/><path d="M47.5,73.9c-0.2,1.1-1.2,2.4-2.2,2.9l-13.5,7c-1,0.5-1.6,0-1.3-1l3.4-14.8c0.2-1.1,1.2-2.4,2.2-2.9l13.5-7  c1-0.5,1.6,0,1.3,1L47.5,73.9z" fill="#CCCCCC"/><path d="M36.3,76.6c-1.2-1-2.6-1.6-4.1-2l-1.9,8c-0.3,1.1,0.3,1.5,1.3,1l7.4-3.8C38.5,78.6,37.5,77.5,36.3,76.6z" fill="#666666"/><path d="M36,69.7c1.5-0.2,3.1,0.3,4.4,1.3c1.3,1,2.1,2.5,2.4,4c1.1,0,2.3,0.4,3.2,1.2c0,0,0.1,0.1,0.1,0.1l34.3-44  c0.5-0.7,0.2-1.9-0.8-2.7L71.2,23c-1-0.8-2.2-0.8-2.8-0.1L34.1,67C35.1,67.8,35.7,68.7,36,69.7z" fill="#ED1C24"/><rect fill="#B3B3B3" height="6.8" transform="matrix(-0.7891 -0.6143 0.6143 -0.7891 103.6217 103.1864)" width="15.2" x="61.9" y="30.4"/><path d="M80.6,28.3l-8.4-6.6c-1-0.8-2.2-0.8-2.7-0.1l-3.8,4.8l12,9.3l3.8-4.8C81.9,30.2,81.5,29.1,80.6,28.3z" fill="#603813"/><path d="M42.7,74.8C42.7,74.9,42.8,74.9,42.7,74.8l0.2,0.2c1.1,0.1,2.2,0.4,3.1,1.2c0,0,0.1,0.1,0.1,0.1l27.4-35.1  L70.6,39L42.7,74.8z" fill="#CF2257"/><path d="M36.1,69.7c0.1,0,0-0.1,0.3,0.1L64.3,34l-2.8-2.2L34.1,67c1,0.8,1.5,1.7,1.8,2.7L36.1,69.7z" fill="#D4145A"/><path d="M36.4,69.8c1.3-0.1,2.8,0.3,4,1.3c1.3,1,2.1,2.4,2.3,3.8L70.6,39l-6.4-5L36.4,69.8z" fill="#ED1E79"/></svg>